<?xml version="1.0" encoding="UTF-8"?>
<!DOCTYPE svg PUBLIC "-//W3C//DTD SVG 1.1//EN" "http://www.w3.org/Graphics/SVG/1.1/DTD/svg11.dtd">
<svg version="1.2" width="135.47mm" height="135.47mm" viewBox="0 0 13547 13547" preserveAspectRatio="xMidYMid" fill-rule="evenodd" stroke-width="28.222" stroke-linejoin="round" xmlns="http://www.w3.org/2000/svg" xmlns:ooo="http://xml.openoffice.org/svg/export" xmlns:xlink="http://www.w3.org/1999/xlink" xmlns:presentation="http://sun.com/xmlns/staroffice/presentation" xmlns:smil="http://www.w3.org/2001/SMIL20/" xmlns:anim="urn:oasis:names:tc:opendocument:xmlns:animation:1.0" xml:space="preserve">
 <defs class="ClipPathGroup">
  <clipPath id="presentation_clip_path" clipPathUnits="userSpaceOnUse">
   <rect x="0" y="0" width="13547" height="13547"/>
  </clipPath>
  <clipPath id="presentation_clip_path_shrink" clipPathUnits="userSpaceOnUse">
   <rect x="13" y="13" width="13520" height="13520"/>
  </clipPath>
 </defs>
 <defs class="TextShapeIndex">
  <g ooo:slide="id1" ooo:id-list="id3 id4"/>
 </defs>
 <defs class="EmbeddedBulletChars">
  <g id="bullet-char-template-57356" transform="scale(0.00048828125,-0.00048828125)">
   <path d="M 580,1141 L 1163,571 580,0 -4,571 580,1141 Z"/>
  </g>
  <g id="bullet-char-template-57354" transform="scale(0.00048828125,-0.00048828125)">
   <path d="M 8,1128 L 1137,1128 1137,0 8,0 8,1128 Z"/>
  </g>
  <g id="bullet-char-template-10146" transform="scale(0.00048828125,-0.00048828125)">
   <path d="M 174,0 L 602,739 174,1481 1456,739 174,0 Z M 1358,739 L 309,1346 659,739 1358,739 Z"/>
  </g>
  <g id="bullet-char-template-10132" transform="scale(0.00048828125,-0.00048828125)">
   <path d="M 2015,739 L 1276,0 717,0 1260,543 174,543 174,936 1260,936 717,1481 1274,1481 2015,739 Z"/>
  </g>
  <g id="bullet-char-template-10007" transform="scale(0.00048828125,-0.00048828125)">
   <path d="M 0,-2 C -7,14 -16,27 -25,37 L 356,567 C 262,823 215,952 215,954 215,979 228,992 255,992 264,992 276,990 289,987 310,991 331,999 354,1012 L 381,999 492,748 772,1049 836,1024 860,1049 C 881,1039 901,1025 922,1006 886,937 835,863 770,784 769,783 710,716 594,584 L 774,223 C 774,196 753,168 711,139 L 727,119 C 717,90 699,76 672,76 641,76 570,178 457,381 L 164,-76 C 142,-110 111,-127 72,-127 30,-127 9,-110 8,-76 1,-67 -2,-52 -2,-32 -2,-23 -1,-13 0,-2 Z"/>
  </g>
  <g id="bullet-char-template-10004" transform="scale(0.00048828125,-0.00048828125)">
   <path d="M 285,-33 C 182,-33 111,30 74,156 52,228 41,333 41,471 41,549 55,616 82,672 116,743 169,778 240,778 293,778 328,747 346,684 L 369,508 C 377,444 397,411 428,410 L 1163,1116 C 1174,1127 1196,1133 1229,1133 1271,1133 1292,1118 1292,1087 L 1292,965 C 1292,929 1282,901 1262,881 L 442,47 C 390,-6 338,-33 285,-33 Z"/>
  </g>
  <g id="bullet-char-template-9679" transform="scale(0.00048828125,-0.00048828125)">
   <path d="M 813,0 C 632,0 489,54 383,161 276,268 223,411 223,592 223,773 276,916 383,1023 489,1130 632,1184 813,1184 992,1184 1136,1130 1245,1023 1353,916 1407,772 1407,592 1407,412 1353,268 1245,161 1136,54 992,0 813,0 Z"/>
  </g>
  <g id="bullet-char-template-8226" transform="scale(0.00048828125,-0.00048828125)">
   <path d="M 346,457 C 273,457 209,483 155,535 101,586 74,649 74,723 74,796 101,859 155,911 209,963 273,989 346,989 419,989 480,963 531,910 582,859 608,796 608,723 608,648 583,586 532,535 482,483 420,457 346,457 Z"/>
  </g>
  <g id="bullet-char-template-8211" transform="scale(0.00048828125,-0.00048828125)">
   <path d="M -4,459 L 1135,459 1135,606 -4,606 -4,459 Z"/>
  </g>
  <g id="bullet-char-template-61548" transform="scale(0.00048828125,-0.00048828125)">
   <path d="M 173,740 C 173,903 231,1043 346,1159 462,1274 601,1332 765,1332 928,1332 1067,1274 1183,1159 1299,1043 1357,903 1357,740 1357,577 1299,437 1183,322 1067,206 928,148 765,148 601,148 462,206 346,322 231,437 173,577 173,740 Z"/>
  </g>
 </defs>
 <g>
  <g id="id2" class="Master_Slide">
   <g id="bg-id2" class="Background"/>
   <g id="bo-id2" class="BackgroundObjects"/>
  </g>
 </g>
 <g class="SlideGroup">
  <g>
   <g id="container-id1">
    <g id="id1" class="Slide" clip-path="url(#presentation_clip_path)">
     <g class="Page">
      <g class="Group">
       <g class="Graphic">
        <title>Moodle-Logo-RGB
        </title>
        <g id="id3">
         <rect class="BoundingBox" stroke="none" fill="none" x="20" y="840" width="12483" height="10465"/>
         <defs>
          <clipPath id="clip_path_1" clipPathUnits="userSpaceOnUse">
           <path d="M 20,840 L 12502,840 12502,11304 20,11304 20,840 Z"/>
          </clipPath>
         </defs>
         <g clip-path="url(#clip_path_1)">
          <path fill="rgb(249,128,18)" stroke="none" d="M 10397,11054 L 10397,6467 C 10397,5508 10063,5029 9395,5028 8728,5028 8393,5508 8392,6467 L 8392,11054 6419,11054 6419,6467 C 6419,5508 6090,5029 5433,5028 4764,5028 4430,5508 4431,6467 L 4431,11054 2458,11054 2458,6196 C 2458,5195 2752,4438 3338,3924 3855,3465 4553,3235 5433,3235 6325,3235 6982,3506 7404,4049 7768,3506 8431,3235 9394,3235 10274,3235 10972,3465 11488,3924 12074,4438 12368,5195 12368,6196 L 12368,11054 10397,11054 Z"/>
          <path fill="rgb(249,128,18)" stroke="none" d="M 34558,11032 L 34558,-2071 36531,-2071 36531,11032 34558,11032 Z"/>
          <path fill="rgb(249,128,18)" stroke="none" d="M 32044,11032 L 32044,10260 C 31867,10538 31568,10761 31145,10928 30800,11074 30437,11152 30071,11157 29131,11157 28377,10775 27807,10010 27238,9245 26953,8298 26953,7171 26953,6059 27230,5125 27790,4375 28285,3712 29090,3248 30018,3248 31063,3248 31673,3714 32044,4249 L 32044,-2071 33964,-2071 33964,11032 32044,11032 Z M 32044,6672 C 32044,6254 31877,5854 31543,5472 31209,5089 30866,4898 30513,4898 30008,4898 29609,5141 29315,5628 29056,6060 28927,6589 28927,7214 28927,7826 29057,8348 29315,8779 29608,9280 30008,9531 30513,9530 30818,9530 31150,9360 31508,9019 31866,8678 32045,8327 32045,7965 L 32044,6672 Z"/>
          <path fill="rgb(249,128,18)" stroke="none" d="M 23236,11241 C 22238,11241 21413,10865 20761,10114 20110,9363 19784,8396 19782,7214 19782,6032 20108,5066 20760,4314 21412,3562 22237,3186 23235,3187 24233,3187 25061,3563 25719,4314 26377,5065 26705,6031 26705,7214 26705,8397 26376,9364 25719,10114 25061,10865 24233,11241 23236,11241 L 23236,11241 Z M 23236,5065 C 22761,5065 22395,5278 22140,5705 21885,6131 21757,6638 21757,7225 21757,7812 21876,8308 22115,8713 22388,9175 22762,9405 23238,9405 23713,9404 24087,9174 24360,8713 24610,8308 24735,7812 24735,7225 24735,6638 24615,6141 24377,5736 24104,5288 23723,5065 23236,5065 L 23236,5065 Z"/>
          <path fill="rgb(249,128,18)" stroke="none" d="M 16103,11241 C 15104,11241 14279,10865 13627,10114 12975,9363 12650,8396 12650,7214 12650,6032 12976,5066 13627,4314 14279,3562 15104,3186 16103,3187 17100,3187 17928,3563 18586,4314 19245,5065 19573,6031 19572,7214 19572,8397 19244,9364 18586,10114 17929,10865 17101,11241 16103,11241 L 16103,11241 Z M 16103,5065 C 15627,5065 15262,5278 15006,5705 14750,6131 14623,6638 14623,7225 14623,7812 14742,8308 14981,8713 15254,9175 15628,9405 16104,9405 16580,9404 16954,9174 17227,8713 17476,8308 17600,7812 17600,7225 17600,6638 17481,6141 17243,5736 16970,5288 16590,5065 16103,5065 L 16103,5065 Z"/>
          <path fill="rgb(249,128,18)" stroke="none" d="M 38867,7923 C 38910,8480 39520,9676 40524,9676 41501,9676 41963,9008 41986,8737 L 44064,8716 C 43837,9538 42916,11283 40487,11283 39477,11283 38553,10910 37889,10166 37225,9422 36894,8453 36894,7256 36894,6018 37226,5034 37889,4304 38553,3573 39413,3208 40470,3208 41621,3208 42519,3660 43165,4564 43764,5398 44064,6518 44064,7923 L 38867,7923 Z M 42091,6483 C 42009,5982 41833,5572 41563,5252 41257,4904 40905,4730 40506,4730 40095,4730 39751,4897 39475,5231 39199,5565 39014,5982 38921,6483 L 42091,6483 Z"/>
          <path fill="rgb(51,51,51)" stroke="none" d="M 6288,2882 L 8246,1187 8221,1084 C 4688,1597 3081,1961 38,4050 L 66,4145 308,4148 C 286,4437 247,5150 296,6222 -41,7379 288,8166 597,9021 646,8132 641,7157 410,6187 362,5122 402,4422 423,4149 L 2441,4172 C 2440,4222 2440,4272 2440,4322 2440,4740 2460,5158 2501,5573 4303,6323 6116,5570 7079,3721 6812,3366 6288,2882 6288,2882 Z"/>
         </g>
        </g>
       </g>
       <g class="Graphic">
        <g id="id4">
         <rect class="BoundingBox" stroke="none" fill="none" x="7235" y="6984" width="6867" height="5818"/>
         <defs>
          <clipPath id="clip_path_2" clipPathUnits="userSpaceOnUse">
           <path d="M 7235,9255 L 12602,6985 14101,10530 8734,12800 7235,9255 Z"/>
          </clipPath>
         </defs>
         <g clip-path="url(#clip_path_2)"/>
         <defs>
          <clipPath id="clip_path_3" clipPathUnits="userSpaceOnUse">
           <path d="M 7235,9255 L 12602,6985 14101,10530 8734,12800 7235,9255 Z"/>
          </clipPath>
         </defs>
         <g clip-path="url(#clip_path_3)">
          <path fill="rgb(0,0,0)" stroke="none" d="M 11012,10707 C 10590,10886 10101,10687 9922,10265 9743,9842 9942,9353 10364,9174 10787,8995 11276,9194 11455,9616 11634,10039 11435,10528 11012,10707 L 11012,10707 Z M 10607,9749 C 10502,9794 10452,9916 10497,10022 10542,10127 10664,10177 10769,10132 10875,10087 10925,9965 10880,9859 10835,9754 10713,9704 10607,9749 L 10607,9749 Z"/>
          <path fill="rgb(0,0,0)" stroke="none" d="M 11417,11665 C 10362,12111 9126,11940 8110,11207 8016,11139 7967,11024 7984,10909 8166,9669 8904,8663 9959,8216 11015,7770 12251,7941 13267,8674 13361,8742 13410,8857 13393,8972 13211,10212 12473,11218 11417,11665 L 11417,11665 Z M 8635,10809 C 9439,11321 10375,11428 11174,11090 11974,10752 12550,10005 12742,9072 11938,8559 11002,8453 10202,8791 9403,9129 8827,9876 8635,10809 L 8635,10809 Z"/>
          <path fill="rgb(0,0,0)" stroke="none" d="M 12308,13772 C 10195,14666 7749,13674 6856,11562 5963,9449 6955,7003 9069,6109 11182,5215 13628,6207 14521,8319 15414,10432 14422,12878 12308,13772 L 12308,13772 Z M 9312,6684 C 7515,7444 6672,9523 7431,11319 8190,13114 10269,13957 12065,13197 13862,12437 14705,10358 13946,8562 13187,6767 11108,5924 9312,6684 L 9312,6684 Z"/>
          <path fill="rgb(0,0,0)" stroke="none" d="M 9463,7042 C 9304,7109 9121,7035 9054,6876 L 8579,5752 C 8512,5593 8586,5410 8745,5343 8903,5276 9086,5350 9153,5509 L 9629,6633 C 9696,6792 9622,6975 9463,7042 L 9463,7042 Z"/>
          <path fill="rgb(0,0,0)" stroke="none" d="M 12632,14538 C 12474,14605 12291,14531 12224,14372 L 11748,13248 C 11681,13089 11755,12906 11914,12839 12073,12772 12256,12846 12323,13005 L 12798,14129 C 12865,14288 12791,14471 12632,14538 L 12632,14538 Z"/>
          <path fill="rgb(0,0,0)" stroke="none" d="M 15122,8404 L 13997,8880 C 13838,8947 13655,8873 13588,8714 13521,8555 13595,8372 13754,8305 L 14879,7829 C 15037,7762 15220,7836 15287,7995 15355,8154 15280,8337 15122,8404 L 15122,8404 Z"/>
          <path fill="rgb(0,0,0)" stroke="none" d="M 6498,12052 C 6340,12119 6157,12045 6089,11886 6022,11727 6097,11544 6255,11477 L 7380,11001 C 7539,10934 7722,11008 7789,11167 7856,11326 7782,11509 7623,11576 L 6498,12052 Z"/>
         </g>
         <g clip-path="url(#clip_path_2)"/>
        </g>
       </g>
      </g>
     </g>
    </g>
   </g>
  </g>
 </g>
</svg>